<svg id="logo" data-name="Layer 4" xmlns="http://www.w3.org/2000/svg" viewBox="0 0 512 512"><title>myLogo</title><path d="M262.48,262.81m-7.2-132.94,14.13-14.13a38.1,38.1,0,0,1,37-9.81L368,122.8a68.91,68.91,0,0,0,67.72-18.55l3.2-3.24L294.05,64.08c-15.4-4.13-33.84,2.28-45.11,13.55L56,267.5l27.27,5.08a41.44,41.44,0,0,0,40-10.73l102.2-102.2,122,32.7-15.47,15.47C323.22,216.68,314,223,298.22,220.9l-21.14-5.66-40.68-10.9,27.45,98.43c3.15,16.23-.22,25.08-9.1,34L150,441.49l24.35,4.38a45.88,45.88,0,0,0,44.42-12l70.15-70.6m29.63-29.82,0,0,148.15-149.1-24.9-4.53a42.77,42.77,0,0,0-41.33,11.08l-91.12,97.4m9.2,45.14L301.5,253"/></svg>