<?xml version="1.0" encoding="utf-8"?>
<!-- Generator: Adobe Illustrator 21.0.2, SVG Export Plug-In . SVG Version: 6.00 Build 0)  -->
<svg version="1.1" id="logo" xmlns="http://www.w3.org/2000/svg" xmlns:xlink="http://www.w3.org/1999/xlink" x="0px" y="0px"
	 viewBox="0 0 512 512" style="enable-background:new 0 0 512 512;" xml:space="preserve">
<style type="text/css">
	.st0{fill:none;stroke:#000000;stroke-miterlimit:10;}
</style>
<path id="outline" class="st0" d="M256,130l13.4-14.3c9.7-9.7,23.8-13.4,37-9.8l61.6,16.9c24.3,6.6,50.2-0.5,67.7-18.6l3.2-3.2
	L294,64.1c-15.4-4.1-33.8,2.3-45.1,13.6L56,267.5l27.3,5.1c14.3,3.8,29.5-0.3,40-10.7l102.2-102.2l122,32.7L332,207.8
	c-8.8,8.9-18,15.2-33.8,13.1l-21.1-5.7l-40.7-10.9l27.5,98.4c3.1,16.2-0.2,25.1-9.1,34L150,441.5l24.4,4.4
	c15.9,4.3,32.8-0.3,44.4-12l68.1-67.8 M296.8,255.1l21.8,78.3l0,0l148.1-149.1l-24.9-4.5c-14.8-4-30.5,0.3-41.3,11.1l-57.1,61"/>
</svg>
