<?xml version="1.0" encoding="utf-8"?>
<!-- Generator: Adobe Illustrator 21.0.2, SVG Export Plug-In . SVG Version: 6.00 Build 0)  -->
<svg version="1.1" id="logo" xmlns="http://www.w3.org/2000/svg" xmlns:xlink="http://www.w3.org/1999/xlink" x="0px" y="0px"
	 viewBox="0 0 512 512" style="enable-background:new 0 0 512 512;" xml:space="preserve">
<g id="outline">
	<path d="M186.2,452.5c-4.3,0-8.7-0.6-12.9-1.7l-33.6-6.1l111.6-111.6c7.2-7.2,10.6-14.1,7.8-29.3l-29.8-106.6l70,18.8
		c13.1,1.7,20.7-3,29.3-11.7l9.4-9.3L227,165.3L126.8,265.4c-11.7,11.6-28.8,16.2-44.6,12l-36.5-6.8L245.4,74.1
		c13.1-13.1,33.6-19.2,49.9-14.9l153.4,39.1l-9.4,9.4c-18.7,19.3-46.5,27-72.5,19.9l-61.6-16.9c-11.4-3.1-23.7,0.1-32.1,8.5
		l-13.3,14.2c-1.9,2-5.1,2.1-7.1,0.2c-2-1.9-2.1-5.1-0.2-7.1l13.5-14.4c10.9-10.9,26.9-15.2,41.9-11.1l61.6,16.9
		c21.2,5.7,43.7,0.3,59.8-14.3L292.8,68.9c-13.1-3.5-29.6,1.6-40.3,12.3L66.3,264.3l18.2,3.4c12.5,3.3,26-0.3,35.2-9.4L224,154.1
		l133.2,35.7l-21.7,21.5c-8.9,9-19.6,17-38,14.5l-0.6-0.1l-21.1-5.7l-32.2-8.6l25.2,90.2l0,0.2c3.2,16.9,0.3,27.7-10.5,38.5l-98,98
		l15.4,2.8c14.1,3.8,29.2-0.3,39.5-10.7l68.1-67.8c2-1.9,5.1-1.9,7.1,0c1.9,2,1.9,5.1,0,7.1l-68.1,67.8
		C212.7,447.2,199.6,452.5,186.2,452.5z M316.1,343L292,256.4c-0.7-2.7,0.8-5.4,3.5-6.2c2.7-0.7,5.4,0.8,6.2,3.5l19.5,70
		l135.3-136.2l-16-2.9c-12.9-3.5-26.9,0.2-36.4,9.8l-57,60.9c-1.9,2-5.1,2.1-7.1,0.2c-2-1.9-2.1-5.1-0.2-7.1l57.2-61.1
		c12-12,29.6-16.8,45.9-12.4l34.1,6.2L316.1,343z"/>
</g>
</svg>
